PathFileType	4	(x/y/z)	S04_M20_T12.trc
DataRate	CameraRate	NumFrames	NumMarkers	Units	OrigDataRate	OrigDataStartFrame	OrigNumFrames
240	240	9	51	mm	240	402	535
Frame#	Time	Sternum			R.Acromium			L.Acromium			Top.Head			R.ASIS			L.ASIS			R.PSIS			L.PSIS			R.Great.Tro			L.Great.Tro			R.Iliac.Crest			L.Iliac.Crest			V.Sacral			R.Thigh.Upper.Post			R.Thigh.Lower.Ant			R.Thigh.Lower.Post			R.Thigh.Upper.Ant			R.Knee.Lat			R.Knee.Med			R.Shank.Upper.Post			R.Shank.Lower.Ant			R.Shank.Lower.Post			R.Shank.Upper.Ant			R.Ankle.Lat			R.Ankle.Med			R.Heel.Upper			R.Heel.Med			R.Heel.Lat			R.Toe.Lat			R.Toe.Med			R.Toe.Tip			L.Thigh.Upper.Post			L.Thigh.Lower.Ant			L.Thigh.Lower.Post			L.Thigh.Upper.Ant			L.Knee.Lat			L.Knee.Med			L.Shank.Upper.Post			L.Shank.Lower.Ant			L.Shank.Lower.Post			L.Shank.Upper.Ant			L.Ankle.Lat			L.Ankle.Med			L.Heel.Upper			L.Heel.Med			L.Heel.Lat			L.Toe.Lat			L.Toe.Med			L.Toe.Tip			Cervical.Spine			Back			
		X1	Y1	Z1	X2	Y2	Z2	X3	Y3	Z3	X4	Y4	Z4	X5	Y5	Z5	X6	Y6	Z6	X7	Y7	Z7	X8	Y8	Z8	X9	Y9	Z9	X10	Y10	Z10	X11	Y11	Z11	X12	Y12	Z12	X13	Y13	Z13	X14	Y14	Z14	X15	Y15	Z15	X16	Y16	Z16	X17	Y17	Z17	X18	Y18	Z18	X19	Y19	Z19	X20	Y20	Z20	X21	Y21	Z21	X22	Y22	Z22	X23	Y23	Z23	X24	Y24	Z24	X25	Y25	Z25	X26	Y26	Z26	X27	Y27	Z27	X28	Y28	Z28	X29	Y29	Z29	X30	Y30	Z30	X31	Y31	Z31	X32	Y32	Z32	X33	Y33	Z33	X34	Y34	Z34	X35	Y35	Z35	X36	Y36	Z36	X37	Y37	Z37	X38	Y38	Z38	X39	Y39	Z39	X40	Y40	Z40	X41	Y41	Z41	X42	Y42	Z42	X43	Y43	Z43	X44	Y44	Z44	X45	Y45	Z45	X46	Y46	Z46	X47	Y47	Z47	X48	Y48	Z48	X49	Y49	Z49	X50	Y50	Z50	X51	Y51	Z51	

402	1.6708	1290	1270.8	244.99	1147.5	1498.1	409.06	1157.5	1478	57.203	1176.7	1822.5	217.05	1254.2	979.43	385.69	1286.3	1008.6	136.97	1056.5	1022.5	258.14	1074.3	1030.1	178.33	1156.6	897.38	431.11	1186.9	922.38	52.532	1165.9	1074.3	417.7	1188.8	1083	75.2	1044.6	984.47	213.52	1169.5	635.64	426.1	1252	555.73	406.53	1174.2	545.09	414	1253.5	666.1	423.11	1190	479.86	409.89	1189.1	476.31	272.95	976.83	394.54	393.79	956.56	292.27	356.38	921.49	352.98	377.61	1009.9	337.53	380.84	835.52	277.45	357.55	867.52	260.95	271.61	784.96	312.4	292.69	766.52	289.71	260.18	754.7	294.66	324.85	825.3	145.14	387.04	859.6	112.05	275.9	902.64	70.468	329.9	1224.2	678.55	75.525	1325.5	607.44	99.383	1253.3	596.51	97.267	1291.8	688.29	73.631	1312.5	515.86	117.3	1302.3	509.86	242.47	1241.8	328.04	118.18	1316.7	247.73	134.09	1252.8	251.8	131.22	1306.4	322.92	121.22	1302.3	97.602	154.59	1298.9	112.86	249.52	1225.5	68.999	203.02	1230.7	46.604	238.47	1228.7	40.277	176.86	1412.4	43.307	144.31	1440.1	57.784	260.59	1498.2	69.963	213.84	1101.4	1539.7	234.65	1032.3	1278.6	215.18
403	1.675	1294.7	1271.7	244.52	1152.5	1499	408.84	1162.1	1479	57.002	1181.7	1823.4	217.01	1259.6	980.46	384.96	1290.6	1009.4	136.03	1061.4	1023.4	258.36	1078.9	1031	178.48	1162.5	898.37	430.93	1190.6	923.02	52.224	1171.4	1075.3	417.37	1193.2	1083.9	74.833	1049.3	985.36	213.81	1178	636.62	425.99	1261.2	557.51	406.16	1183.5	546.13	413.87	1261.7	667.88	422.81	1199.9	481.1	409.59	1198.7	477.7	272.57	987.21	394.85	393.55	967.41	292.42	356.41	932.06	352.99	377.5	1020.5	337.96	380.76	846.45	276.89	357.57	878.49	260.54	271.67	795.25	311.09	292.74	777.01	288.06	260.31	765.28	293.08	324.99	837.83	144.69	387.57	872.26	111.63	276.43	915.92	70.818	330.49	1226.8	679.09	75.291	1327.8	607.31	98.859	1255.5	596.84	96.877	1294.6	688.3	73.256	1314.3	515.78	116.88	1304.3	509.88	242.03	1242.7	328.22	118.04	1317.3	247.63	133.87	1253.4	251.95	131.13	1307.3	322.85	120.95	1302.4	97.605	154.57	1299.1	112.95	249.45	1225.6	69.052	203.04	1230.7	46.659	238.45	1228.7	40.358	176.86	1412.5	43.194	144.21	1440.2	57.578	260.56	1498.3	69.566	213.76	1106.3	1540.6	234.53	1037.1	1279.4	215.06
404	1.6792	1299.5	1272.6	244.04	1157.5	1499.8	408.63	1166.6	1480	56.805	1186.7	1824.3	216.99	1265	981.49	384.22	1294.9	1010.1	135.1	1066.3	1024.3	258.6	1083.4	1031.8	178.64	1168.4	899.37	430.75	1194.4	923.65	51.923	1177	1076.3	417.05	1197.7	1084.9	74.475	1054	986.23	214.11	1186.5	637.64	425.9	1270.3	559.35	405.78	1192.8	547.21	413.76	1269.8	669.68	422.52	1209.7	482.39	409.29	1208.3	479.12	272.19	997.58	395.06	393.33	978.33	292.47	356.43	942.67	352.85	377.41	1031.2	338.31	380.68	857.46	276.11	357.61	889.56	259.96	271.75	805.61	309.54	292.83	787.61	286.19	260.47	775.94	291.25	325.15	850.52	144.02	388.06	885.11	111.07	276.92	929.4	71.035	331	1229.5	679.63	75.064	1330	607.17	98.337	1257.6	597.16	96.495	1297.3	688.32	72.886	1315.9	515.7	116.47	1306.1	509.89	241.58	1243.6	328.39	117.91	1317.9	247.54	133.65	1254.1	252.09	131.04	1308.1	322.79	120.68	1302.5	97.608	154.55	1299.3	113.04	249.38	1225.6	69.105	203.05	1230.7	46.713	238.44	1228.8	40.437	176.86	1412.5	43.089	144.1	1440.3	57.386	260.52	1498.4	69.186	213.67	1111.1	1541.4	234.41	1041.9	1280.3	214.95
405	1.6833	1304.2	1273.5	243.56	1162.4	1500.7	408.42	1171.1	1481	56.614	1191.6	1825.2	216.98	1270.4	982.51	383.49	1299.2	1010.8	134.17	1071.2	1025.1	258.83	1088	1032.7	178.81	1174.3	900.38	430.57	1198.1	924.27	51.628	1182.5	1077.2	416.72	1202.1	1085.8	74.125	1058.7	987.09	214.41	1195	638.69	425.83	1279.4	561.21	405.39	1202	548.34	413.66	1277.9	671.52	422.23	1219.5	483.72	409	1217.8	480.59	271.82	1007.9	395.17	393.11	989.32	292.41	356.47	953.3	352.57	377.32	1041.9	338.59	380.61	868.56	275.13	357.66	900.72	259.22	271.82	816.05	307.77	292.95	798.31	284.09	260.66	786.71	289.16	325.34	863.37	143.14	388.52	898.15	110.37	277.36	943.09	71.126	331.46	1232.1	680.17	74.847	1332.2	607.02	97.82	1259.7	597.49	96.12	1300	688.35	72.52	1317.5	515.62	116.05	1307.9	509.89	241.13	1244.4	328.57	117.78	1318.5	247.46	133.43	1254.6	252.24	130.95	1308.9	322.72	120.41	1302.6	97.614	154.54	1299.5	113.13	249.31	1225.6	69.158	203.06	1230.7	46.767	238.43	1228.8	40.513	176.86	1412.5	42.99	143.99	1440.4	57.206	260.48	1498.5	68.822	213.58	1115.8	1542.3	234.3	1046.7	1281.2	214.84
406	1.6875	1309	1274.4	243.08	1167.4	1501.6	408.22	1175.5	1482	56.426	1196.5	1826.1	217	1275.8	983.52	382.76	1303.5	1011.5	133.25	1076.1	1026	259.07	1092.5	1033.5	178.98	1180.2	901.39	430.4	1201.9	924.88	51.339	1187.9	1078.2	416.4	1206.4	1086.7	73.781	1063.4	987.94	214.71	1203.4	639.78	425.78	1288.4	563.12	404.99	1211.2	549.52	413.56	1286	673.39	421.93	1229.2	485.09	408.7	1227.2	482.09	271.45	1018.3	395.17	392.91	1000.4	292.25	356.5	963.97	352.16	377.25	1052.6	338.8	380.54	879.75	273.96	357.73	911.99	258.32	271.91	826.57	305.78	293.1	809.1	281.78	260.86	797.56	286.83	325.55	876.39	142.07	388.94	911.38	109.54	277.76	956.97	71.1	331.85	1234.6	680.71	74.64	1334.3	606.87	97.308	1261.7	597.82	95.755	1302.6	688.37	72.155	1319	515.54	115.64	1309.6	509.87	240.68	1245.2	328.74	117.67	1319	247.38	133.2	1255.2	252.4	130.87	1309.7	322.66	120.15	1302.7	97.621	154.53	1299.7	113.22	249.25	1225.7	69.212	203.07	1230.7	46.819	238.42	1228.8	40.588	176.86	1412.6	42.897	143.88	1440.5	57.036	260.43	1498.6	68.471	213.49	1120.6	1543.1	234.2	1051.4	1282.1	214.75
407	1.6917	1313.7	1275.3	242.59	1172.3	1502.4	408.02	1180	1482.9	56.244	1201.4	1826.9	217.03	1281.2	984.53	382.04	1307.8	1012.2	132.33	1081	1026.8	259.3	1097.1	1034.3	179.15	1186.1	902.4	430.24	1205.6	925.48	51.057	1193.4	1079.1	416.08	1210.8	1087.6	73.443	1068	988.77	215.02	1211.8	640.9	425.74	1297.4	565.05	404.58	1220.4	550.74	413.47	1294.1	675.27	421.62	1238.9	486.49	408.4	1236.6	483.62	271.09	1028.7	395.08	392.72	1011.5	292	356.54	974.66	351.62	377.2	1063.4	338.93	380.47	891.02	272.6	357.81	923.34	257.27	271.99	837.17	303.57	293.27	820	279.25	261.08	808.51	284.26	325.78	889.56	140.83	389.33	924.78	108.58	278.13	971.05	70.964	332.2	1237.1	681.26	74.443	1336.3	606.71	96.802	1263.6	598.15	95.4	1305.2	688.39	71.794	1320.5	515.46	115.23	1311.3	509.85	240.23	1245.9	328.91	117.57	1319.5	247.3	132.98	1255.7	252.55	130.81	1310.4	322.61	119.89	1302.8	97.629	154.52	1299.9	113.31	249.18	1225.7	69.266	203.08	1230.7	46.871	238.41	1228.9	40.661	176.86	1412.6	42.807	143.77	1440.5	56.875	260.38	1498.7	68.132	213.39	1125.4	1544	234.1	1056.2	1282.9	214.66
408	1.6958	1318.4	1276.1	242.11	1177.3	1503.2	407.83	1184.4	1483.8	56.066	1206.2	1827.8	217.07	1286.5	985.53	381.32	1312.1	1012.9	131.43	1085.8	1027.7	259.54	1101.6	1035.1	179.33	1191.9	903.41	430.08	1209.3	926.06	50.781	1198.8	1080	415.76	1215.1	1088.5	73.11	1072.7	989.58	215.33	1220.1	642.05	425.72	1306.4	567	404.16	1229.6	551.99	413.38	1302.1	677.18	421.3	1248.5	487.92	408.1	1245.8	485.18	270.73	1039	394.9	392.54	1022.7	291.65	356.58	985.38	350.94	377.15	1074.2	339	380.4	902.38	271.06	357.9	934.79	256.06	272.08	847.86	301.16	293.46	831	276.52	261.31	819.56	281.47	326.02	902.89	139.42	389.7	938.36	107.5	278.47	985.3	70.728	332.51	1239.6	681.8	74.257	1338.3	606.54	96.303	1265.5	598.48	95.058	1307.7	688.42	71.434	1321.9	515.37	114.82	1312.9	509.81	239.79	1246.5	329.08	117.49	1319.9	247.23	132.76	1256.2	252.7	130.75	1311.1	322.55	119.64	1302.8	97.64	154.53	1300.1	113.4	249.13	1225.7	69.32	203.09	1230.7	46.923	238.4	1228.9	40.732	176.87	1412.6	42.721	143.66	1440.6	56.72	260.33	1498.8	67.804	213.29	1130.1	1544.8	234.01	1060.9	1283.7	214.58
409	1.7	1323.1	1277	241.62	1182.2	1504	407.64	1188.9	1484.7	55.892	1211	1828.6	217.13	1291.9	986.52	380.6	1316.4	1013.5	130.54	1090.6	1028.5	259.77	1106.1	1035.8	179.5	1197.7	904.41	429.92	1212.9	926.62	50.512	1204.1	1080.9	415.43	1219.4	1089.4	72.779	1077.3	990.36	215.63	1228.5	643.22	425.72	1315.3	568.98	403.72	1238.7	553.28	413.3	1310.1	679.1	420.97	1258.1	489.38	407.8	1255	486.75	270.38	1049.4	394.61	392.37	1033.9	291.2	356.61	996.13	350.14	377.12	1085	338.99	380.33	913.82	269.35	357.99	946.33	254.72	272.16	858.64	298.55	293.66	842.12	273.58	261.55	830.72	278.47	326.28	916.37	137.86	390.05	952.09	106.31	278.79	999.73	70.399	332.79	1242	682.34	74.084	1340.2	606.37	95.814	1267.4	598.81	94.728	1310.2	688.45	71.077	1323.2	515.29	114.43	1314.4	509.78	239.35	1247.2	329.26	117.43	1320.3	247.17	132.54	1256.6	252.86	130.71	1311.7	322.5	119.4	1302.9	97.653	154.53	1300.2	113.49	249.08	1225.7	69.376	203.1	1230.8	46.973	238.39	1228.9	40.803	176.88	1412.6	42.638	143.55	1440.7	56.571	260.28	1498.8	67.485	213.2	1134.9	1545.6	233.92	1065.6	1284.6	214.51
410	1.7042	1327.8	1277.8	241.13	1187.2	1504.8	407.46	1193.3	1485.6	55.724	1215.8	1829.4	217.2	1297.2	987.5	379.89	1320.7	1014.2	129.65	1095.4	1029.3	260	1110.6	1036.6	179.67	1203.5	905.41	429.77	1216.6	927.17	50.252	1209.4	1081.8	415.11	1223.7	1090.3	72.449	1082	991.13	215.93	1236.8	644.42	425.72	1324.1	570.98	403.27	1247.9	554.6	413.21	1318.1	681.03	420.62	1267.6	490.86	407.5	1264.1	488.34	270.03	1059.7	394.23	392.21	1045.2	290.67	356.65	1006.9	349.21	377.1	1095.9	338.92	380.26	925.36	267.47	358.09	957.97	253.23	272.25	869.52	295.74	293.86	853.34	270.46	261.79	841.98	275.26	326.54	929.99	136.17	390.38	965.99	105.01	279.1	1014.3	69.987	333.05	1244.3	682.88	73.923	1342.1	606.19	95.333	1269.2	599.14	94.412	1312.6	688.47	70.724	1324.5	515.2	114.03	1315.9	509.73	238.92	1247.7	329.44	117.38	1320.7	247.11	132.32	1257	253.02	130.69	1312.3	322.45	119.16	1303	97.669	154.55	1300.4	113.57	249.03	1225.8	69.432	203.11	1230.8	47.022	238.39	1228.9	40.873	176.89	1412.6	42.556	143.45	1440.8	56.426	260.23	1498.9	67.174	213.1	1139.6	1546.4	233.84	1070.4	1285.3	214.44
